HIERARCHY
ROOT Hips
{
	OFFSET 0.000000 103.266502 0.000000
	CHANNELS 6 Xposition Yposition Zposition Xrotation Yrotation Zrotation 
	JOINT Spine
	{
		OFFSET -0.002400 12.777504 0.315300
		CHANNELS 3 Xrotation Yrotation Zrotation
		JOINT Spine1
		{
			OFFSET -0.002067 5.816869 0.032633
			CHANNELS 3 Xrotation Yrotation Zrotation
			JOINT Spine1_split
			{
				OFFSET -0.002067 5.816869 0.032633
				CHANNELS 3 Xrotation Yrotation Zrotation
				JOINT Spine2
				{
					OFFSET -0.002067 5.816869 0.032633
					CHANNELS 3 Xrotation Yrotation Zrotation
					JOINT Neck
					{
						OFFSET -0.003700 21.199493 -0.826900
						CHANNELS 3 Xrotation Yrotation Zrotation
						JOINT Head
						{
							OFFSET 0.000000 20.442200 4.834800
							CHANNELS 3 Xrotation Yrotation Zrotation
							JOINT HeadTop_End
							{
								OFFSET 0.000000 34.668396 4.968400
								CHANNELS 3 Xrotation Yrotation Zrotation
								End Site
								{
									OFFSET 0.000000 0.000000 0.000000
								}
							}
						}
					}
					JOINT LeftShoulder
					{
						OFFSET 3.288150 8.794197 -1.372250
						CHANNELS 3 Xrotation Yrotation Zrotation
						JOINT LeftShoulder_split
						{
							OFFSET 3.288150 8.794197 -1.372250
							CHANNELS 3 Xrotation Yrotation Zrotation
							JOINT LeftArm
							{
								OFFSET 11.953299 -2.279007 -0.146200
								CHANNELS 3 Xrotation Yrotation Zrotation
								JOINT LeftForeArm
								{
									OFFSET 18.448900 0.000000 0.000000
									CHANNELS 3 Xrotation Yrotation Zrotation
									JOINT LeftHand
									{
										OFFSET 29.527798 0.000000 0.000000
										CHANNELS 3 Xrotation Yrotation Zrotation
										JOINT LeftHandThumb1
										{
											OFFSET 10.739754 -2.369614 9.225399
											CHANNELS 3 Xrotation Yrotation Zrotation
											JOINT LeftHandThumb2
											{
												OFFSET 4.926170 -2.844131 2.844125
												CHANNELS 3 Xrotation Yrotation Zrotation
												JOINT LeftHandThumb3
												{
													OFFSET 4.614891 -2.664413 2.664409
													CHANNELS 3 Xrotation Yrotation Zrotation
													JOINT LeftHandThumb4
													{
														OFFSET 4.432465 -2.559082 2.559083
														CHANNELS 3 Xrotation Yrotation Zrotation
														End Site
														{
															OFFSET 0.000000 0.000000 0.000000
														}
													}
												}
											}
										}
										JOINT LeftHandIndex1
										{
											OFFSET 26.467674 0.187653 6.405298
											CHANNELS 3 Xrotation Yrotation Zrotation
											JOINT LeftHandIndex2
											{
												OFFSET 8.792900 0.000000 0.000000
												CHANNELS 3 Xrotation Yrotation Zrotation
												JOINT LeftHandIndex3
												{
													OFFSET 10.075203 0.000000 0.000000
													CHANNELS 3 Xrotation Yrotation Zrotation
													End Site
													{
														OFFSET 0.000000 0.000000 0.000000
													}
												}
											}
										}
										JOINT LeftHandMiddle1
										{
											OFFSET 25.764404 0.000000 0.000000
											CHANNELS 3 Xrotation Yrotation Zrotation
											JOINT LeftHandMiddle2
											{
												OFFSET 9.393974 0.000000 0.000000
												CHANNELS 3 Xrotation Yrotation Zrotation
												JOINT LeftHandMiddle3
												{
													OFFSET 10.771950 0.000000 0.000000
													CHANNELS 3 Xrotation Yrotation Zrotation
													End Site
													{
														OFFSET 0.000000 0.000000 0.000000
													}
												}
											}
										}
										JOINT LeftHandRing1
										{
											OFFSET 24.660927 0.144547 -6.225808
											CHANNELS 3 Xrotation Yrotation Zrotation
											JOINT LeftHandRing2
											{
												OFFSET 9.393799 0.000000 0.000000
												CHANNELS 3 Xrotation Yrotation Zrotation
												JOINT LeftHandRing3
												{
													OFFSET 9.928497 0.000000 0.000000
													CHANNELS 3 Xrotation Yrotation Zrotation
													End Site
													{
														OFFSET 0.000000 0.000000 0.000000
													}
												}
											}
										}
										JOINT LeftHandPinky1
										{
											OFFSET 23.655350 0.125290 -12.815412
											CHANNELS 3 Xrotation Yrotation Zrotation
											JOINT LeftHandPinky2
											{
												OFFSET 8.425102 0.000000 0.000000
												CHANNELS 3 Xrotation Yrotation Zrotation
												JOINT LeftHandPinky3
												{
													OFFSET 8.147003 0.000000 0.000000
													CHANNELS 3 Xrotation Yrotation Zrotation
													End Site
													{
														OFFSET 0.000000 0.000000 0.000000
													}
												}
											}
										}
									}
								}
							}
						}
					}
					JOINT RightShoulder
					{
						OFFSET -3.249400 8.794197 -1.372250
						CHANNELS 3 Xrotation Yrotation Zrotation
						JOINT RightShoulder_split
						{
							OFFSET -3.249400 8.794197 -1.372250
							CHANNELS 3 Xrotation Yrotation Zrotation
							JOINT RightArm
							{
								OFFSET -11.953299 -2.279007 -0.146200
								CHANNELS 3 Xrotation Yrotation Zrotation
								JOINT RightForeArm
								{
									OFFSET -18.448900 0.000000 0.000000
									CHANNELS 3 Xrotation Yrotation Zrotation
									JOINT RightHand
									{
										OFFSET -29.527802 0.000000 0.000000
										CHANNELS 3 Xrotation Yrotation Zrotation
										JOINT RightHandThumb1
										{
											OFFSET -10.739754 -2.369614 9.225399
											CHANNELS 3 Xrotation Yrotation Zrotation
											JOINT RightHandThumb2
											{
												OFFSET -4.926170 -2.844131 2.844125
												CHANNELS 3 Xrotation Yrotation Zrotation
												JOINT RightHandThumb3
												{
													OFFSET -4.614891 -2.664413 2.664409
													CHANNELS 3 Xrotation Yrotation Zrotation
													JOINT RightHandThumb4
													{
														OFFSET -4.432465 -2.559082 2.559083
														CHANNELS 3 Xrotation Yrotation Zrotation
														End Site
														{
															OFFSET 0.000000 0.000000 0.000000
														}
													}
												}
											}
										}
										JOINT RightHandIndex1
										{
											OFFSET -26.467674 0.187653 6.405298
											CHANNELS 3 Xrotation Yrotation Zrotation
											JOINT RightHandIndex2
											{
												OFFSET -8.792900 0.000000 0.000000
												CHANNELS 3 Xrotation Yrotation Zrotation
												JOINT RightHandIndex3
												{
													OFFSET -10.075203 0.000000 0.000000
													CHANNELS 3 Xrotation Yrotation Zrotation
													End Site
													{
														OFFSET 0.000000 0.000000 0.000000
													}
												}
											}
										}
										JOINT RightHandMiddle1
										{
											OFFSET -25.764404 0.000000 0.000000
											CHANNELS 3 Xrotation Yrotation Zrotation
											JOINT RightHandMiddle2
											{
												OFFSET -9.393974 0.000000 0.000000
												CHANNELS 3 Xrotation Yrotation Zrotation
												JOINT RightHandMiddle3
												{
													OFFSET -10.771950 0.000000 0.000000
													CHANNELS 3 Xrotation Yrotation Zrotation
													End Site
													{
														OFFSET 0.000000 0.000000 0.000000
													}
												}
											}
										}
										JOINT RightHandRing1
										{
											OFFSET -24.660927 0.144547 -6.225808
											CHANNELS 3 Xrotation Yrotation Zrotation
											JOINT RightHandRing2
											{
												OFFSET -9.393799 0.000000 0.000000
												CHANNELS 3 Xrotation Yrotation Zrotation
												JOINT RightHandRing3
												{
													OFFSET -9.928497 0.000000 0.000000
													CHANNELS 3 Xrotation Yrotation Zrotation
													End Site
													{
														OFFSET 0.000000 0.000000 0.000000
													}
												}
											}
										}
										JOINT RightHandPinky1
										{
											OFFSET -23.655350 0.125290 -12.815412
											CHANNELS 3 Xrotation Yrotation Zrotation
											JOINT RightHandPinky2
											{
												OFFSET -8.425102 0.000000 0.000000
												CHANNELS 3 Xrotation Yrotation Zrotation
												JOINT RightHandPinky3
												{
													OFFSET -8.147003 0.000000 0.000000
													CHANNELS 3 Xrotation Yrotation Zrotation
													End Site
													{
														OFFSET 0.000000 0.000000 0.000000
													}
												}
											}
										}
									}
								}
							}
						}
					}
				}
			}
		}
	}
	JOINT LeftUpLeg
	{
		OFFSET 11.394100 -6.187798 -0.413800
		CHANNELS 3 Xrotation Yrotation Zrotation
		JOINT LeftLeg
		{
			OFFSET 0.430247 -32.302673 3.732800
			CHANNELS 3 Xrotation Yrotation Zrotation
			JOINT LeftFoot
			{
				OFFSET -0.430247 -48.264931 -6.423300
				CHANNELS 3 Xrotation Yrotation Zrotation
				JOINT LeftToeBase
				{
					OFFSET 4.230900 -16.068199 23.438400
					CHANNELS 3 Xrotation Yrotation Zrotation
					JOINT LeftToe_End
					{
						OFFSET 4.510700 0.695400 19.974600
						CHANNELS 3 Xrotation Yrotation Zrotation
						End Site
						{
							OFFSET 0.000000 0.000000 0.000000
						}
					}
				}
			}
		}
	}
	JOINT RightUpLeg
	{
		OFFSET -11.333700 -6.187798 -0.413800
		CHANNELS 3 Xrotation Yrotation Zrotation
		JOINT RightLeg
		{
			OFFSET -0.430392 -32.302628 3.733000
			CHANNELS 3 Xrotation Yrotation Zrotation
			JOINT RightFoot
			{
				OFFSET 0.430392 -48.264973 -6.423500
				CHANNELS 3 Xrotation Yrotation Zrotation
				JOINT RightToeBase
				{
					OFFSET -4.230900 -16.068199 23.438400
					CHANNELS 3 Xrotation Yrotation Zrotation
					JOINT RightToe_End
					{
						OFFSET -4.510700 0.695400 19.974600
						CHANNELS 3 Xrotation Yrotation Zrotation
						End Site
						{
							OFFSET 0.000000 0.000000 0.000000
						}
					}
				}
			}
		}
	}
}
MOTION
Frames: 4
Frame Time: 0.016667
-0.063714 101.963158 0.447287 -4.056209 6.162460 -1.762705 4.903406 -0.349227 1.219416 5.814411 -0.121264 1.891506 0.000000 0.000000 0.000000 -4.300225 -0.608023 -1.115061 1.349176 -1.122404 0.966674 4.180455 -0.441329 -1.260370 0.000001 0.000000 0.000000 1.687484 -7.781254 -3.494998 0.000000 0.000000 0.000000 -0.672289 -2.004149 -76.954164 6.346026 -10.905142 1.751716 -0.215849 -0.744259 3.407800 -3.779742 8.457876 12.348742 7.439531 11.617320 -1.292624 1.145891 8.839768 5.191141 0.000001 0.000000 -0.000000 2.384572 3.620159 -6.815703 -0.007826 0.227209 -17.103497 0.000000 -0.000000 -0.000000 -1.935778 5.644687 -11.387006 0.112463 0.632664 -24.767758 0.000001 0.000000 0.000001 -4.873133 10.020105 -7.875468 -0.031553 0.293307 -30.086222 0.000000 0.000000 -0.000003 -6.437541 11.282628 -19.770951 0.029280 0.211151 -30.857644 -0.000000 -0.000000 -0.000001 2.069733 10.207992 4.096300 0.000000 0.000000 0.000000 1.439768 3.704602 75.273917 15.720234 15.338361 -4.555472 -4.669818 -0.553078 -0.689263 -0.464226 -8.992537 -6.084853 7.444305 -11.614487 1.291688 1.121876 -8.850205 -5.182522 0.000000 0.000000 -0.000000 2.415139 -3.647882 8.343601 -0.045904 -0.188509 18.630260 -0.000000 0.000000 0.000000 -1.985493 -5.700680 13.541337 0.094748 -0.637368 26.924134 0.000002 0.000001 0.000003 -4.982056 -10.062142 10.706125 -0.023918 -0.331173 32.937389 -0.000002 0.000002 0.000000 -6.468524 -11.288228 23.243656 0.067363 -0.216406 34.333257 -0.000000 0.000002 -0.000000 -2.876789 10.907739 10.573835 9.501017 -6.576932 0.233051 -3.804438 0.620264 -6.882100 -0.000026 0.013850 -0.000004 0.000000 -0.000000 -0.000000 -1.047136 -5.962266 1.852837 8.337887 3.354514 -0.631368 -3.040580 0.103587 0.239268 0.000046 0.000002 0.000003 0.000000 0.000000 0.000000 
0.084907 101.961044 0.508621 -4.000559 6.043549 -1.778715 4.886007 -0.327799 1.181526 5.821198 -0.106783 1.917306 0.000000 0.000000 0.000000 -4.288224 -0.596360 -1.086638 1.375391 -1.125631 0.914276 4.107039 -0.471391 -1.182773 0.000000 -0.000000 0.000000 1.710092 -7.716845 -3.464171 0.000000 0.000000 0.000000 -0.640204 -1.994683 -77.013170 6.401011 -10.925490 1.756948 -0.211697 -0.779955 3.402868 -3.770353 8.494625 12.357311 7.410608 11.555751 -1.302243 1.156695 8.872095 5.197125 0.000001 0.000000 0.000000 2.365563 3.558893 -6.752267 -0.007895 0.227189 -17.059746 0.000000 -0.000000 -0.000000 -1.944293 5.590010 -11.373867 0.112399 0.632616 -24.756944 -0.000000 0.000000 -0.000000 -4.875000 9.973651 -7.908304 -0.031575 0.293456 -30.105240 -0.000000 0.000000 0.000000 -6.427779 11.248475 -19.851969 0.029335 0.211360 -30.908764 -0.000000 -0.000000 -0.000003 2.108044 10.186221 3.925884 0.000000 0.000000 0.000000 1.704445 4.137058 75.329405 15.726318 16.016510 -5.167386 -4.943595 -0.670162 -0.596684 -0.464270 -8.992513 -6.084843 7.444330 -11.614539 1.291611 1.121850 -8.850199 -5.182473 0.000004 -0.000001 0.000000 2.415113 -3.647883 8.343651 -0.045924 -0.188497 18.630251 -0.000002 -0.000000 -0.000001 -1.985545 -5.700719 13.541272 0.094743 -0.637346 26.924206 -0.000001 -0.000001 -0.000002 -4.982046 -10.062119 10.706142 -0.023996 -0.331210 32.937337 -0.000002 0.000000 0.000002 -6.468532 -11.288250 23.243632 0.067324 -0.216367 34.333288 -0.000001 -0.000001 -0.000001 -2.887514 10.871593 10.474409 9.613298 -6.457260 0.247791 -3.929354 0.670375 -6.800491 -0.000007 0.013854 -0.000005 0.000000 -0.000000 -0.000000 -1.061708 -5.973200 1.754876 8.320381 3.383180 -0.631233 -3.091839 0.150681 0.368529 0.040154 0.122571 -0.037731 -0.000000 -0.000000 0.000000 
0.247642 101.955574 0.596575 -3.998209 5.938359 -1.763314 4.953207 -0.314915 1.113182 5.780769 -0.096299 1.938783 0.000000 0.000000 0.000000 -4.313798 -0.587797 -1.059323 1.415383 -1.142937 0.891898 4.072205 -0.494246 -1.181361 0.000001 0.000000 -0.000000 1.725176 -7.668272 -3.419644 0.000000 0.000000 0.000000 -0.663470 -1.883001 -77.088957 6.401423 -10.863913 1.697822 -0.197295 -0.886261 3.455015 -3.774912 8.496033 12.356098 7.405254 11.551457 -1.297595 1.159386 8.871950 5.192132 -0.000000 0.000001 0.000000 2.390002 3.891190 -6.747930 -0.007880 0.227176 -17.044170 -0.000001 -0.000000 0.000000 -1.920715 5.826081 -11.342085 0.112328 0.632560 -24.738949 0.000001 -0.000000 0.000001 -4.854184 10.148923 -7.869568 -0.031527 0.293375 -30.088076 -0.000000 -0.000000 -0.000001 -6.388001 11.353683 -19.828790 0.029399 0.211320 -30.898673 -0.000000 0.000000 0.000001 2.143771 10.163303 3.767667 0.000000 0.000000 0.000000 1.868296 4.550497 75.382059 15.821517 16.571753 -5.763650 -5.230327 -0.788503 -0.468318 -0.464262 -8.992498 -6.084817 7.444309 -11.614515 1.291607 1.121864 -8.850205 -5.182499 0.000001 -0.000002 0.000001 2.415138 -3.647870 8.343612 -0.045889 -0.188531 18.630225 -0.000002 0.000000 0.000000 -1.985481 -5.700721 13.541304 0.094758 -0.637318 26.924186 0.000000 -0.000000 -0.000001 -4.982028 -10.062150 10.706082 -0.023976 -0.331192 32.937447 -0.000001 -0.000000 0.000004 -6.468532 -11.288260 23.243646 0.067386 -0.216354 34.333302 0.000001 -0.000001 -0.000005 -2.821664 10.893406 10.347868 9.713402 -6.384886 0.255529 -4.071840 0.702703 -6.703803 0.000037 0.013850 -0.000001 0.000000 0.000000 -0.000000 -1.053457 -6.018989 1.639716 8.384188 3.513126 -0.648576 -3.174771 0.154125 0.467464 0.070956 0.176728 -0.017458 0.000000 0.000000 0.000000 
0.429079 101.948456 0.674131 -3.911307 5.840409 -1.777268 4.912533 -0.305627 1.113548 5.773950 -0.091455 1.936357 0.000000 0.000000 0.000000 -4.297130 -0.582284 -1.054468 1.394789 -1.143807 0.871364 4.049760 -0.507421 -1.134739 -0.000000 -0.000000 0.000000 1.736349 -7.615505 -3.398643 0.000000 0.000000 0.000000 -0.683187 -1.787387 -77.118518 6.429663 -10.835445 1.658457 -0.182039 -0.982548 3.540807 -3.774021 8.519671 12.359892 7.396393 11.544278 -1.289702 1.142228 8.806195 5.170883 0.000000 0.000000 -0.000001 2.376648 3.922602 -6.679055 -0.007978 0.227125 -16.995707 0.000001 -0.000000 0.000001 -1.916469 5.871967 -11.333406 0.112279 0.632533 -24.733653 0.000001 -0.000000 0.000001 -4.835772 10.220187 -7.914602 -0.031533 0.293554 -30.121776 0.000000 0.000000 -0.000001 -6.320910 11.443573 -19.933963 0.029594 0.211628 -30.970448 -0.000000 -0.000000 0.000001 2.177288 10.135593 3.620688 0.000000 0.000000 0.000000 1.959047 4.933512 75.428941 15.740919 17.064215 -6.286256 -5.433548 -0.728879 -0.390450 -0.464236 -8.992528 -6.084884 7.444292 -11.614506 1.291604 1.121872 -8.850178 -5.182482 -0.000003 -0.000001 0.000001 2.415386 -3.653176 8.343843 -0.045930 -0.188518 18.630227 -0.000001 -0.000000 0.000000 -1.985533 -5.700711 13.541217 0.094804 -0.637351 26.924240 0.000001 0.000001 -0.000000 -4.982050 -10.062144 10.706131 -0.023992 -0.331162 32.937365 -0.000001 -0.000000 0.000003 -6.468546 -11.288239 23.243694 0.067340 -0.216384 34.333302 -0.000002 -0.000000 0.000001 -2.873012 10.809914 10.214166 9.873139 -6.231121 0.284604 -4.226977 0.745942 -6.608725 -0.000044 0.013846 0.000004 0.000000 0.000000 0.000000 -1.120616 -6.049640 1.522990 8.420784 3.565768 -0.650846 -3.254610 0.169352 0.564680 0.110937 0.275671 -0.011884 0.000000 -0.000000 0.000000 
